<mxfile host="app.diagrams.net" modified="2023-11-28T19:12:58.487Z" agent="Mozilla/5.0 (Windows NT 10.0; Win64; x64) AppleWebKit/537.36 (KHTML, like Gecko) Chrome/119.0.0.0 Safari/537.36" etag="VqImXqGf2H1xevmQR75H" version="22.1.4" type="github">
  <diagram name="Page-1" id="l_gD9_SzrH0IbRgldODu">
    <mxGraphModel dx="1493" dy="637" grid="1" gridSize="10" guides="1" tooltips="1" connect="1" arrows="1" fold="1" page="1" pageScale="1" pageWidth="827" pageHeight="1169" math="0" shadow="0">
      <root>
        <mxCell id="0" />
        <mxCell id="1" parent="0" />
        <mxCell id="oG08klxHvN-SBbYu8qwL-6" value="" style="edgeStyle=orthogonalEdgeStyle;rounded=0;orthogonalLoop=1;jettySize=auto;html=1;" edge="1" parent="1" source="oG08klxHvN-SBbYu8qwL-1" target="oG08klxHvN-SBbYu8qwL-2">
          <mxGeometry relative="1" as="geometry" />
        </mxCell>
        <mxCell id="oG08klxHvN-SBbYu8qwL-13" style="edgeStyle=orthogonalEdgeStyle;rounded=0;orthogonalLoop=1;jettySize=auto;html=1;entryX=0.5;entryY=0;entryDx=0;entryDy=0;strokeColor=#CC0000;" edge="1" parent="1" source="oG08klxHvN-SBbYu8qwL-1" target="oG08klxHvN-SBbYu8qwL-10">
          <mxGeometry relative="1" as="geometry" />
        </mxCell>
        <mxCell id="oG08klxHvN-SBbYu8qwL-1" value="Designer" style="rounded=1;whiteSpace=wrap;html=1;" vertex="1" parent="1">
          <mxGeometry x="370" y="120" width="120" height="80" as="geometry" />
        </mxCell>
        <mxCell id="oG08klxHvN-SBbYu8qwL-7" value="" style="edgeStyle=orthogonalEdgeStyle;rounded=0;orthogonalLoop=1;jettySize=auto;html=1;" edge="1" parent="1" source="oG08klxHvN-SBbYu8qwL-2" target="oG08klxHvN-SBbYu8qwL-3">
          <mxGeometry relative="1" as="geometry" />
        </mxCell>
        <mxCell id="oG08klxHvN-SBbYu8qwL-2" value="Game Analysis:&lt;br&gt;What you found difficult with my game" style="rounded=1;whiteSpace=wrap;html=1;" vertex="1" parent="1">
          <mxGeometry x="220" y="250" width="420" height="160" as="geometry" />
        </mxCell>
        <mxCell id="oG08klxHvN-SBbYu8qwL-8" value="" style="edgeStyle=orthogonalEdgeStyle;rounded=0;orthogonalLoop=1;jettySize=auto;html=1;" edge="1" parent="1" source="oG08klxHvN-SBbYu8qwL-3" target="oG08klxHvN-SBbYu8qwL-4">
          <mxGeometry relative="1" as="geometry" />
        </mxCell>
        <mxCell id="oG08klxHvN-SBbYu8qwL-3" value="User" style="rounded=1;whiteSpace=wrap;html=1;" vertex="1" parent="1">
          <mxGeometry x="370" y="460" width="120" height="80" as="geometry" />
        </mxCell>
        <mxCell id="oG08klxHvN-SBbYu8qwL-11" style="edgeStyle=orthogonalEdgeStyle;rounded=0;orthogonalLoop=1;jettySize=auto;html=1;entryX=0.5;entryY=1;entryDx=0;entryDy=0;strokeColor=#0000FF;" edge="1" parent="1" source="oG08klxHvN-SBbYu8qwL-4" target="oG08klxHvN-SBbYu8qwL-9">
          <mxGeometry relative="1" as="geometry" />
        </mxCell>
        <mxCell id="oG08klxHvN-SBbYu8qwL-4" value="User Experience" style="rounded=1;whiteSpace=wrap;html=1;" vertex="1" parent="1">
          <mxGeometry x="220" y="600" width="420" height="160" as="geometry" />
        </mxCell>
        <mxCell id="oG08klxHvN-SBbYu8qwL-12" style="edgeStyle=orthogonalEdgeStyle;rounded=0;orthogonalLoop=1;jettySize=auto;html=1;entryX=1;entryY=0.5;entryDx=0;entryDy=0;strokeColor=#0000FF;" edge="1" parent="1" source="oG08klxHvN-SBbYu8qwL-9" target="oG08klxHvN-SBbYu8qwL-1">
          <mxGeometry relative="1" as="geometry">
            <Array as="points">
              <mxPoint x="740" y="160" />
            </Array>
          </mxGeometry>
        </mxCell>
        <mxCell id="oG08klxHvN-SBbYu8qwL-9" value="Review" style="rounded=1;whiteSpace=wrap;html=1;" vertex="1" parent="1">
          <mxGeometry x="680" y="280" width="120" height="80" as="geometry" />
        </mxCell>
        <mxCell id="oG08klxHvN-SBbYu8qwL-14" style="edgeStyle=orthogonalEdgeStyle;rounded=0;orthogonalLoop=1;jettySize=auto;html=1;entryX=0;entryY=0.5;entryDx=0;entryDy=0;exitX=0.5;exitY=1;exitDx=0;exitDy=0;strokeColor=#FF0000;" edge="1" parent="1" source="oG08klxHvN-SBbYu8qwL-10" target="oG08klxHvN-SBbYu8qwL-4">
          <mxGeometry relative="1" as="geometry" />
        </mxCell>
        <mxCell id="oG08klxHvN-SBbYu8qwL-10" value="Response" style="rounded=1;whiteSpace=wrap;html=1;" vertex="1" parent="1">
          <mxGeometry x="40" y="280" width="120" height="80" as="geometry" />
        </mxCell>
      </root>
    </mxGraphModel>
  </diagram>
</mxfile>
